<?xml version="1.0" encoding="utf-8"?>
<!-- Generator: Adobe Illustrator 24.2.1, SVG Export Plug-In . SVG Version: 6.00 Build 0)  -->
<svg version="1.1" id="Layer_1" xmlns="http://www.w3.org/2000/svg" xmlns:xlink="http://www.w3.org/1999/xlink" x="0px" y="0px"
	 viewBox="0 0 640 480" style="enable-background:new 0 0 640 480;" xml:space="preserve">
<style type="text/css">
	.st0{fill:#FFFFFF;}
	.st1{fill:#FAE01A;}
</style>
<g>
	<g>
		<path class="st0" d="M376.3,153.4l-20.4-1.7l-10.2-0.9c-1.7-0.1-3.4-0.3-5.1-0.4l-5.1-0.3c-13.6-0.7-27.2-1.8-40.8-2
			c-6.8-0.2-13.6-0.5-20.4-0.6l-20.4-0.1c-3.4,0-6.8-0.1-10.2,0l-10.2,0.2l-10.2,0.2c-3.4,0.1-6.8,0.1-10.2,0.3l-20.4,1
			c-1.7,0.1-3.4,0.2-5.1,0.3l-5.1,0.4l-10.2,0.8c-6.8,0.4-13.5,1.1-20.3,1.6l-10.2,0.8l-10.1,0.9l-10.2,0.8l-10.1,1
			c-3.4,0.3-6.8,0.5-10.1,0.9c-3.4,0.4-6.8,0.7-10.1,1c-13.5,1.4-27,2.9-40.6,4.7l-0.2-0.8c13.1-4,26.5-7,39.9-9.5
			c6.7-1.3,13.5-2.4,20.2-3.4l10.2-1.5l10.2-1.2c27.2-3.2,54.6-3.9,81.9-4.1c3.4-0.1,6.8,0,10.3,0l10.3,0.1l10.2,0.1
			c3.4,0,6.8,0.2,10.2,0.3l20.5,0.7c6.8,0.3,13.6,0.8,20.4,1.2c13.6,0.7,27.2,2.3,40.8,3.5l5.1,0.5c1.7,0.2,3.4,0.4,5.1,0.6
			l10.2,1.3l20.3,2.6L376.3,153.4z"/>
	</g>
	<g>
		<g>
			<path class="st1" d="M71.5,121.7l20.2,0.7c0.4,0.1,0.6,0.4,0.8,0.7l0.6,15.3l-2,6.3l-20,1.1l0-14.2l2.7-1.7l-4.1-0.1L71.5,121.7z
				 M78.9,137.4l6.4-0.3l-0.3-6.9l-6.1-0.2L78.9,137.4z"/>
			<path class="st1" d="M96.2,121.7l8.7,0.6c0.3,0.1,0.5,0.3,0.6,0.6l0,13.1l-8,1.8l-0.1-7.6l-3-0.4L96.2,121.7z"/>
			<path class="st1" d="M108.9,121.7l7.9,0.7l0.5,1.8c2.4-1.1,6.5-2,10.2-2l2,0c0.4,0.1,0.6,0.4,0.8,0.8l0.7,15.5l-1.8,6.3
				l-11.7,0.9l1.5-8l4-0.4l-0.3-7.2c-1.2,0-4.2,0.7-5.1,1.4c-1.1,3.3-1.7,8.2-2.2,12.9l-8,1.3l0.4-2.9c0.6-4.9,1.7-9.6,2.7-12.9
				l-3.5-0.4L108.9,121.7z"/>
			<path class="st1" d="M134.3,121.7l10,1l6.2-1.3l0.2,1.5l4.2,0.2l-1.4,7.2l-2.4,0.7l0.6,13l-8.5,1.6l0.1-14.9l-10.9-0.9
				L134.3,121.7z"/>
			<path class="st1" d="M157.7,121.7l8.9,0.8c0.2,0.1,0.5,0.4,0.6,0.7l0.1,20.8l-8.3,1.6v-15.4l-3-0.4L157.7,121.7z"/>
			<path class="st1" d="M170.6,121.7l19.8,0.7c0.3,0.2,0.5,0.3,0.6,0.6v9.5c0,4.9-3.5,9.5-9.1,12.5l-3.1-7.3c2.9-1.6,4.2-3.1,4.5-4
				l-0.2-3.8l-14.4-0.2L170.6,121.7z M178.1,151.4l-7.8,1.4l-0.5-19.8l7.6-1.5L178.1,151.4z"/>
			<path class="st1" d="M204,121.7l20.2,0.7c0.4,0.1,0.6,0.4,0.8,0.7l0.6,15.3l-2,6.3l-20,1.1l0-14.2l2.7-1.7l-4.1-0.1L204,121.7z
				 M211.3,137.4l6.4-0.3l-0.3-6.9l-6.1-0.2L211.3,137.4z"/>
			<path class="st1" d="M228.7,121.7l8.7,0.6c0.3,0.1,0.5,0.3,0.6,0.6l0,13.1l-8,1.8l-0.1-7.6l-3-0.4L228.7,121.7z"/>
			<path class="st1" d="M241.4,137.9l4.5-0.3l-1.1-7.3l-4.2-0.5l1.9-8.1l10.6,1.2l-0.6,3.7l2,11.7c-0.2,0.8-2.5,5.7-3.1,6.7
				l-11.9,0.7L241.4,137.9z"/>
			<path class="st1" d="M257.2,121.7l8.7,0.6c0.3,0.1,0.5,0.3,0.6,0.6l0,13.1l-8,1.8l-0.1-7.6l-3-0.4L257.2,121.7z"/>
			<path class="st1" d="M269.8,121.7l8.7,0.6c0.3,0.1,0.5,0.3,0.6,0.6l0,13.1l-8,1.8l-0.1-7.6l-3-0.4L269.8,121.7z"/>
			<path class="st1" d="M302.5,138.4l-2.6,6.6l-19.3,0.9l2.1-7.5l12.1-0.7l-0.7-8l-4.4-0.2c0.5,1.5,1.2,3.2,1.8,4.6l-7.4,3
				c-0.7-1.2-1.8-4.7-1.7-6l2.7-1.8l-4.1-0.2l1.9-7.9l17.8,1.1c0.3,0.2,0.5,0.3,0.7,0.6L302.5,138.4z"/>
			<path class="st1" d="M305.7,121.7l7.9,0.7l0.5,1.8c2.4-1.1,6.5-2,10.2-2l2,0c0.4,0.1,0.6,0.4,0.8,0.8l0.7,15.5l-1.8,6.3
				l-11.7,0.9l1.5-8l4-0.4l-0.3-7.2c-1.2,0-4.2,0.7-5.1,1.4c-1.1,3.3-1.7,8.2-2.2,12.9l-8,1.3l0.4-2.9c0.6-4.9,1.7-9.6,2.7-12.9
				l-3.5-0.4L305.7,121.7z"/>
			<path class="st1" d="M331.1,121.7l19.8,0.7c0.3,0.2,0.5,0.3,0.6,0.6v9.5c0,4.9-3.5,9.5-9.1,12.5l-3.1-7.3c2.9-1.6,4.2-3.1,4.5-4
				l-0.2-3.8l-14.4-0.2L331.1,121.7z M338.6,151.4l-7.8,1.4l-0.5-19.8l7.6-1.5L338.6,151.4z"/>
			<path class="st1" d="M361,116.5l0.4,5.5l10.6,0.5c0.3,0.1,0.6,0.4,0.7,0.7l0,10.9c-0.8,5.8-5.3,9.3-11.1,10.7l-5.6,0.8l1.4-8.1
				c3.1-0.4,5.2-0.8,6.4-1.5c0.6-0.4,0.9-0.7,0.9-1.4l0-4.6l-10.7-0.5l-0.8-11.2L361,116.5z"/>
		</g>
	</g>
</g>
<g>
	<g>
		<g>
			<path class="st1" d="M212.9,167.7l-5.1-6.4l-0.3-0.4l0.5,0l3.3-0.1l0.1,0l0.1,0.1l3.2,4.1l-0.3-0.1l0.1,0l-0.3,0.1l3.1-4.2
				l0.1-0.2l0.2,0c1.1,0,2.1,0,3.2,0l1,0l-0.6,0.8c-0.8,1.1-1.6,2.1-2.5,3.2c-0.8,1.1-1.7,2.1-2.6,3.1l-0.1,0.1l-0.1,0
				C214.9,167.9,213.8,167.8,212.9,167.7z M212.9,167.7c1.1-0.1,2.1-0.2,3-0.2l-0.2,0.1c0.7-1.1,1.5-2.2,2.3-3.3
				c0.8-1.1,1.6-2.2,2.4-3.3l0.4,0.8c-1.1,0-2.1,0-3.2,0l0.4-0.2l-3.2,4.1l-0.1,0.2l-0.2,0l-0.1,0l-0.2,0l-0.1-0.1l-3.1-4.2l0.2,0.1
				l-3.3-0.1l0.2-0.4L212.9,167.7z"/>
		</g>
	</g>
</g>
</svg>
