<svg id="Layer_1" data-name="Layer 1" xmlns="http://www.w3.org/2000/svg" viewBox="0 0 640 480"><defs><style>.cls-1{fill:#fae01a;}</style></defs><path class="cls-1" d="M248.86,193.62A23.18,23.18,0,0,1,246,204.51a17.55,17.55,0,0,1-14.21,8.6c-1.33.08-2.67.08-4,0a27.83,27.83,0,0,1-13-3.23c-4.92-2.73-8.68-7.31-9.47-13a24.57,24.57,0,0,1-.21-3.32c0-4.27,3.47-6.79,6.39-9.38s6-5.58,9.14-8.21c2.68-2.27,6.19-4.28,9.8-4.28A21.27,21.27,0,0,1,243.49,176c3.93,3.15,5.13,8.24,5.34,13C248.9,190.59,248.92,192.11,248.86,193.62Z"/></svg>